 <svg  version="1.0" xmlns="http://www.w3.org/2000/svg"  width="300.000000pt" height="296.000000pt" viewBox="0 0 300.000000 296.000000"  preserveAspectRatio="xMidYMid meet">  <g transform="translate(0.000000,296.000000) scale(0.100000,-0.100000)" fill="#000000" stroke="none"> 
<path d="M2 2955 c7 -7 2989 -7 2996 0 3 3 -671 5 -1498 5 -827 0 -1501 -2 -1498 -5z"/> 
<path d="M1165 2923 c-420 -89 -803 -384 -1004 -773 -117 -228 -159 -405 -159 -675 0 -177 16 -290 63 -440 73 -234 186 -417 369 -601 135 -134 250 -217 410 -294 164 -78 401 -142 520 -139 45 1 41 3 -29 11 -338 37 -655 192 -899 436 -206 207 -342 460 -402 747 -28 134 -26 454 4 581 140 594 567 1012 1172 1147 36 8 56 15 45 15 -11 0 -51 -6 -90 -15z"/> 
<path d="M1825 2916 c307 -74 526 -196 740 -410 246 -247 379 -519 428 -881 3 -16 3 3 0 43 -5 95 -45 250 -93 366 -128 308 -352 561 -645 730 -139 80 -352 156 -475 170 -41 4 -29 0 45 -18z"/> 
<path d="M1353 2872 c-7 -5 -11 -28 -10 -60 2 -40 6 -52 18 -52 13 0 15 9 12 53 -6 67 -6 68 -20 59z"/> 
<path d="M1400 2860 c21 -21 27 -65 10 -75 -5 -3 -10 -11 -10 -17 0 -6 9 -3 20 7 25 23 26 67 2 88 -26 24 -46 21 -22 -3z"/> 
<path d="M1468 2833 c4 -48 21 -73 51 -73 11 0 8 5 -8 16 -19 14 -22 24 -19 60 2 34 0 44 -12 44 -12 0 -14 -10 -12 -47z"/> 
<path d="M1545 2826 c0 -30 3 -52 7 -48 11 12 14 102 3 102 -5 0 -10 -25 -10 -54z"/> 
<path d="M1600 2860 c-24 -24 -25 -48 -4 -78 22 -32 34 -27 21 9 -10 25 -9 35 5 60 20 33 7 38 -22 9z"/> 
<path d="M1230 2813 c5 -27 6 -51 3 -55 -2 -5 4 -8 15 -8 17 0 18 4 11 43 -4 23 -8 48 -9 55 0 6 -6 12 -13 12 -11 0 -12 -11 -7 -47z"/> 
<path d="M1745 2850 c-3 -5 -1 -26 4 -46 6 -21 8 -40 6 -44 -3 -4 5 -10 16 -13 18 -5 20 -2 15 16 -3 12 -9 39 -12 60 -6 36 -17 47 -29 27z"/> 
<path d="M1824 2813 c-4 -21 -11 -46 -16 -55 -7 -14 -5 -18 10 -18 15 0 21 9 26 39 3 22 9 46 12 55 4 10 1 16 -9 16 -11 0 -18 -13 -23 -37z"/> 
<path d="M1080 2831 c-16 -4 -21 -9 -13 -14 7 -4 15 -28 19 -52 5 -34 11 -45 24 -45 17 0 17 3 4 47 -8 26 -12 53 -10 60 3 7 4 13 3 12 -1 -1 -13 -4 -27 -8z"/> 
<path d="M1912 2804 c-1 -15 -8 -40 -16 -55 -8 -16 -11 -29 -6 -29 5 0 16 -3 24 -6 11 -4 15 -2 11 8 -3 8 1 32 9 55 8 23 12 44 9 47 -14 14 -29 4 -31 -20z"/> 
<path d="M1966 2778 c-21 -29 -20 -41 3 -69 l18 -23 -4 31 c-6 39 12 73 37 73 31 0 30 -39 -1 -82 -23 -33 -12 -36 25 -7 14 11 26 31 26 43 0 52 -75 76 -104 34z"/> 
<path d="M908 2768 c5 -7 16 -32 23 -55 12 -41 22 -52 33 -35 3 5 -3 29 -12 55 -12 33 -22 47 -36 47 -13 0 -16 -3 -8 -12z"/> 
<path d="M2100 2767 c0 -2 4 -17 10 -33 5 -16 14 -49 20 -74 10 -37 14 -41 22 -27 13 25 -11 116 -34 128 -10 5 -18 8 -18 6z"/> 
<path d="M856 2727 c19 -17 27 -33 27 -57 0 -30 2 -31 14 -14 7 10 13 25 13 34 0 28 -30 60 -56 60 l-25 0 27 -23z"/> 
<path d="M790 2726 c0 -2 10 -27 23 -54 16 -34 27 -48 36 -43 15 10 -26 101 -46 101 -7 0 -13 -2 -13 -4z"/> 
<path d="M1345 2724 c-296 -45 -532 -156 -727 -342 -229 -219 -356 -474 -394 -792 -47 -390 104 -800 394 -1070 95 -90 248 -192 352 -236 113 -47 113 -42 1 11 -385 183 -654 531 -726 939 -19 114 -19 316 1 430 44 255 155 474 332 657 110 115 211 191 338 256 282 144 566 177 892 101 85 -20 91 -22 71 -35 -11 -8 -18 -20 -16 -26 5 -16 -32 -49 -48 -43 -21 8 -26 -6 -9 -26 19 -20 21 -55 7 -108 -8 -30 -13 -35 -36 -33 -18 1 -27 -3 -27 -13 0 -8 -4 -14 -10 -14 -5 0 -10 -9 -10 -20 0 -11 -4 -20 -10 -20 -5 0 -10 7 -10 15 0 8 -9 19 -20 25 -27 15 -44 -19 -35 -72 6 -34 4 -42 -15 -55 -16 -11 -21 -23 -17 -40 3 -14 -2 -37 -9 -52 -13 -25 -14 -25 -14 -3 0 33 -27 27 -46 -10 -19 -37 -38 -58 -53 -58 -14 0 -109 -68 -113 -80 -2 -5 -25 -13 -53 -16 -27 -4 -55 -11 -60 -18 -18 -19 -55 -37 -55 -26 0 17 -21 11 -45 -12 -18 -17 -33 -22 -63 -20 -32 3 -40 0 -44 -16 -5 -19 -7 -19 -92 4 -47 12 -121 28 -163 35 -70 11 -77 11 -89 -6 -8 -10 -14 -31 -14 -45 0 -44 -19 -86 -45 -100 -14 -7 -25 -19 -25 -26 0 -7 -10 -14 -22 -16 -14 -2 -24 -11 -26 -23 -2 -18 20 -27 200 -80 l203 -60 3 -35 c2 -19 11 -43 19 -53 25 -27 9 -31 -72 -17 -60 10 -78 10 -90 0 -11 -9 -49 -11 -145 -7 l-130 5 0 -434 0 -434 190 0 191 0 -12 -22 c-19 -35 -12 -138 11 -170 11 -15 20 -31 20 -36 0 -42 86 -122 130 -122 15 0 34 -7 41 -17 13 -15 11 -16 -11 -10 -59 16 -72 16 -36 2 22 -8 48 -12 59 -9 12 4 17 2 13 -4 -3 -5 10 -13 30 -17 31 -5 45 -1 93 28 67 41 113 57 139 51 46 -13 129 75 131 139 1 10 11 37 23 60 12 23 24 60 27 82 l6 40 90 0 90 0 5 315 c3 173 3 343 2 378 l-4 64 -119 -4 c-65 -2 -119 -1 -119 2 1 4 228 116 262 129 6 2 9 -32 8 -85 -1 -49 -2 -249 -1 -444 l1 -355 302 2 303 3 -78 -75 c-194 -185 -440 -304 -705 -340 -55 -7 -80 -13 -57 -14 159 -4 441 96 622 221 151 103 326 305 413 477 45 90 88 222 111 343 18 97 21 136 16 273 -4 114 -11 184 -26 245 -76 305 -237 550 -480 733 -155 116 -316 190 -512 233 -72 16 -339 27 -404 18z m684 -125 c353 -164 603 -476 704 -878 31 -125 30 -405 -1 -538 -44 -186 -110 -332 -219 -485 l-58 -80 -3 526 -2 527 -135 -3 c-74 -2 -134 0 -133 3 2 4 86 84 188 178 172 160 215 211 176 211 -9 0 -95 -75 -193 -167 -257 -242 -228 -223 -334 -223 l-89 0 0 29 c0 47 20 91 41 91 16 0 18 -5 13 -25 -9 -37 5 -30 22 10 18 44 18 51 -1 35 -9 -7 -18 -10 -21 -8 -3 3 81 65 185 137 105 73 191 136 191 140 0 5 -6 14 -14 20 -11 9 -23 8 -52 -4 -30 -12 -39 -13 -45 -3 -5 7 -14 13 -21 14 -20 1 -51 16 -71 32 -16 14 -20 14 -40 -7 l-22 -23 26 16 c23 15 28 15 39 1 7 -8 19 -15 26 -15 8 0 14 -5 14 -11 0 -6 9 -9 19 -6 12 3 22 -1 26 -11 3 -8 4 -16 3 -17 -2 -1 -88 -59 -193 -130 -104 -70 -203 -140 -220 -155 -16 -15 -57 -45 -90 -68 -65 -43 -137 -122 -170 -186 -11 -21 -25 -40 -31 -43 -7 -3 -140 38 -296 91 -156 52 -339 109 -408 126 -146 35 -190 49 -190 59 0 4 13 14 29 24 23 14 31 28 43 84 l14 68 45 -3 c54 -3 221 -43 310 -73 91 -31 203 -91 283 -152 38 -28 86 -65 106 -80 l37 -28 79 82 c75 78 278 259 290 259 3 0 -50 -55 -118 -122 -108 -107 -230 -245 -172 -195 11 9 24 14 28 10 4 -5 6 -1 4 7 -2 8 2 14 9 13 6 -1 17 5 25 14 9 12 9 15 1 9 -8 -4 -13 -2 -13 4 0 7 7 9 16 6 10 -4 46 22 107 77 103 93 226 188 305 236 45 28 66 51 46 51 -22 0 -233 -164 -371 -288 -46 -41 -83 -70 -83 -64 0 13 181 182 280 261 41 33 105 76 141 94 46 24 64 39 59 47 -11 18 -23 12 -118 -59 -45 -33 -84 -61 -86 -61 -3 0 2 14 10 30 9 17 20 30 25 30 6 0 7 -6 3 -12 -5 -8 0 -7 11 2 17 14 17 15 1 18 -27 6 -46 -6 -46 -26 0 -11 -44 -54 -117 -113 -65 -52 -163 -139 -219 -194 l-101 -100 -79 63 c-98 79 -208 144 -291 174 -43 16 -63 28 -63 39 0 14 7 16 39 12 34 -5 43 -2 65 22 20 21 26 24 26 11 0 -21 19 -21 36 2 8 10 13 12 14 5 0 -19 20 -16 20 2 0 19 41 36 56 24 8 -6 14 -3 19 8 6 16 8 15 21 -9 10 -19 19 -25 34 -21 19 5 19 7 5 23 -8 9 -15 21 -15 26 0 10 89 78 103 79 14 0 77 67 71 76 -3 5 0 9 5 9 6 0 11 -2 11 -4 0 -2 3 -13 6 -23 5 -15 4 -15 -5 -3 -8 12 -11 12 -17 -3 -4 -10 -2 -23 4 -29 7 -7 15 0 27 23 29 57 35 62 55 44 12 -11 20 -13 25 -6 9 15 -3 31 -31 41 -29 11 -31 26 -5 40 14 7 21 6 24 -3 3 -8 7 -5 12 7 5 10 3 33 -3 50 -7 18 -12 40 -12 49 0 24 27 21 33 -3 7 -26 37 -26 37 0 0 13 13 26 36 37 49 24 77 94 59 148 -4 15 2 29 22 49 15 15 29 23 31 17 2 -6 8 -11 14 -11 17 0 35 -25 43 -59 4 -21 12 -31 20 -27 8 3 17 -6 23 -22 33 -96 44 -142 49 -205 2 -40 11 -93 20 -119 8 -26 11 -53 7 -60 -6 -10 -4 -10 8 0 14 11 15 17 3 45 -7 18 -16 70 -20 117 -4 46 -16 109 -26 140 -10 30 -19 63 -19 72 0 9 -13 30 -30 46 -16 17 -30 40 -30 51 0 12 -5 21 -10 21 -6 0 -17 15 -25 33 -8 17 -14 26 -15 18 0 -8 -3 -12 -6 -8 -3 3 -3 11 1 17 8 14 29 7 134 -41z m-104 -852 c-8 -19 -11 -44 -8 -55 5 -20 1 -22 -36 -22 l-41 0 0 -63 0 -63 -163 -82 c-90 -45 -172 -82 -183 -82 -10 0 -85 12 -166 27 -135 26 -148 30 -148 49 0 20 -4 21 -67 17 -67 -5 -68 -5 -85 25 -23 38 -24 87 -3 78 48 -18 198 -59 309 -85 101 -23 134 -35 156 -56 20 -19 34 -25 48 -20 30 9 82 72 89 107 6 32 114 132 181 168 20 10 57 35 82 54 25 20 46 36 47 36 1 0 -4 -15 -12 -33z m-45 -108 c0 -8 5 -7 16 2 13 10 17 10 25 -2 6 -10 9 -10 9 -1 0 6 7 12 16 12 8 0 12 -4 9 -10 -3 -5 -1 -10 4 -10 6 0 11 4 11 9 0 5 18 9 41 9 23 1 40 -1 38 -2 -10 -9 -139 -76 -161 -85 -26 -10 -26 -9 -24 40 0 27 4 49 9 49 4 0 7 -5 7 -11z m350 -1 c0 -9 3 -9 9 1 8 12 12 12 25 2 11 -9 16 -10 16 -2 0 18 30 12 31 -6 1 -17 2 -17 6 0 5 19 18 22 28 7 3 -5 14 -10 23 -10 15 0 15 2 2 10 -13 8 -12 10 3 10 13 0 17 -8 17 -35 0 -19 4 -35 8 -35 5 0 7 13 4 29 -2 16 1 32 7 35 6 4 12 -1 12 -11 5 -60 4 -90 -2 -103 -4 -8 -3 -24 1 -35 4 -11 3 -28 -2 -37 -5 -11 -5 -18 1 -18 17 0 6 -35 -14 -42 -20 -6 -20 -6 0 -7 20 -1 22 -26 16 -248 -1 -27 -18 -31 -24 -5 -4 13 -5 11 -6 -5 -1 -16 5 -23 17 -23 27 0 24 -60 -3 -61 -20 -1 -20 -1 0 -7 17 -6 20 -16 20 -67 0 -33 -4 -63 -10 -67 -7 -5 -7 -8 0 -8 6 0 10 -25 10 -55 0 -37 -4 -55 -12 -55 -8 0 -12 16 -12 48 1 66 -2 99 -8 85 -2 -7 -12 -13 -21 -13 -15 0 -15 2 -2 10 10 6 11 10 3 10 -7 0 -13 12 -14 28 0 15 -3 21 -6 15 -2 -7 -12 -13 -21 -13 -11 0 -13 3 -6 8 9 5 8 11 -2 20 -14 13 -19 5 -15 -20 0 -5 -5 -8 -13 -8 -11 0 -14 16 -13 70 2 54 -1 70 -13 74 -8 2 -3 4 13 5 23 1 27 -3 28 -26 1 -21 3 -18 8 12 5 31 10 39 24 37 12 -2 17 4 17 23 0 14 6 25 13 25 7 0 8 3 2 8 -16 11 -17 34 -3 43 10 7 10 9 -2 9 -13 0 -13 1 0 10 10 6 11 10 3 10 -7 0 -13 11 -13 25 0 14 -6 25 -12 25 -9 0 -8 4 2 10 13 8 13 10 -2 10 -9 0 -21 12 -26 28 -6 15 -11 21 -11 15 -1 -7 -8 -13 -16 -13 -8 0 -15 6 -16 13 0 10 -2 10 -6 0 -2 -7 -18 -13 -34 -13 -16 0 -29 6 -30 13 0 10 -2 10 -6 0 -2 -7 -20 -13 -39 -13 -20 0 -34 5 -35 13 0 10 -2 10 -6 0 -3 -8 -25 -13 -59 -13 -36 0 -54 4 -55 13 0 10 -2 10 -6 0 -6 -15 -33 -17 -33 -3 0 6 -4 10 -10 10 -5 0 -9 -5 -7 -11 1 -7 -14 -12 -38 -13 -26 -1 -39 -6 -37 -14 1 -6 -5 -12 -13 -12 -12 0 -13 4 -6 19 6 10 8 31 5 46 -4 23 -2 26 13 21 16 -5 15 -4 -1 9 -20 15 -20 15 0 16 18 0 18 1 -1 9 -20 9 -20 9 0 10 19 1 18 2 -2 10 -29 12 -29 26 -2 40 11 7 18 14 15 17 -3 4 -1 12 5 20 10 11 15 11 27 1 13 -11 14 -11 7 1 -6 11 -4 13 8 8 10 -3 24 -4 33 0 13 5 13 7 2 14 -11 7 -10 11 2 19 9 6 18 6 24 0 16 -16 30 -12 17 4 -8 10 -9 16 -1 21 13 8 32 -3 25 -15 -3 -5 23 4 57 20 66 30 138 40 138 18z m-1125 -220 c3 3 16 -1 30 -8 26 -14 34 -40 13 -40 -9 0 -9 -3 -3 -8 14 -9 17 -52 3 -52 -6 0 -6 -6 2 -15 10 -12 10 -15 -1 -16 -10 0 -11 -2 -1 -6 6 -2 10 -9 6 -14 -7 -12 -44 -12 -44 1 0 12 -37 50 -49 50 -5 0 -14 6 -20 14 -6 8 -26 16 -44 19 -18 3 -42 7 -54 10 -14 4 -23 1 -24 -6 0 -7 -4 -3 -9 8 -5 11 -9 15 -9 9 -1 -6 -7 -11 -13 -11 -7 0 -21 -4 -30 -8 -11 -4 -18 -3 -18 4 0 8 -6 9 -17 3 -10 -5 -49 -10 -87 -11 -38 -1 -76 -6 -84 -10 -24 -13 -37 9 -37 61 l0 46 144 1 c80 1 147 3 148 5 2 2 46 -5 98 -14 52 -9 97 -15 100 -12z m173 -42 c99 -18 103 -28 9 -24 l-77 3 0 -375 0 -375 206 3 c158 2 204 0 198 -9 -4 -7 -8 -24 -9 -38 -1 -14 -12 -43 -24 -64 -11 -21 -21 -47 -21 -58 0 -34 -47 -114 -75 -127 -14 -7 -40 -12 -58 -12 -36 0 -105 -29 -144 -60 -34 -26 -69 -25 -107 3 -17 13 -44 27 -59 31 -53 13 -106 56 -113 91 -3 18 -15 43 -26 55 -25 27 -34 120 -16 162 l13 28 102 0 103 0 0 390 c0 306 3 390 13 389 6 0 45 -6 85 -13z m372 -58 c25 -13 55 -38 67 -56 43 -65 40 -220 -5 -282 -30 -41 -99 -71 -157 -68 l-50 3 3 -65 c3 -56 8 -69 33 -95 38 -40 37 -59 -7 -84 -27 -16 -52 -21 -110 -21 -126 0 -162 35 -109 104 25 33 25 36 28 244 l2 210 -26 21 c-34 26 -41 56 -21 81 15 17 32 20 122 23 58 1 123 4 145 5 26 1 57 -6 85 -20z m679 -28 c7 -24 9 -60 5 -90 -6 -44 -10 -50 -30 -50 -14 0 -31 12 -45 33 -29 41 -34 44 -84 51 -67 10 -70 6 -71 -89 -1 -82 -1 -85 21 -85 24 0 35 17 35 55 0 26 24 55 45 55 28 0 46 -151 29 -239 -6 -27 -10 -31 -40 -31 -24 0 -34 5 -34 15 0 9 -7 32 -16 53 -13 32 -17 35 -25 20 -14 -25 -22 -138 -11 -173 7 -26 14 -30 47 -33 22 -2 58 2 82 8 l42 12 7 59 c7 61 24 96 41 86 37 -23 42 -197 7 -243 l-19 -26 -204 2 c-112 0 -208 3 -213 6 -15 10 -8 42 17 72 l25 29 -3 226 c-2 224 -2 226 -24 236 -25 12 -33 65 -10 74 6 3 102 6 213 6 l201 1 12 -40z m-1274 -10 c72 -69 110 -190 102 -320 -6 -95 -32 -155 -98 -225 l-52 -55 -168 0 c-92 0 -179 4 -193 10 -35 13 -37 62 -2 78 28 13 34 56 38 278 2 150 2 151 -26 187 -22 29 -25 39 -17 56 13 24 58 28 253 27 l127 -1 36 -35z m741 28 c3 -4 -11 -8 -30 -8 -20 0 -36 4 -36 9 0 12 59 11 66 -1z m-537 -30 c-4 -31 2 -48 17 -48 8 0 12 -4 9 -10 -3 -5 -1 -10 4 -10 6 0 11 -21 11 -50 0 -33 -4 -50 -12 -50 -10 0 -10 -2 0 -8 9 -6 12 -39 11 -120 -2 -106 -3 -112 -23 -113 -20 -2 -20 -2 2 -6 12 -2 22 -11 22 -19 0 -8 5 -14 10 -14 6 0 10 -5 10 -11 0 -5 -4 -7 -10 -4 -6 4 -10 -7 -10 -24 0 -29 -3 -31 -35 -31 -33 0 -35 2 -35 35 0 21 5 35 13 35 8 0 7 4 -3 10 -13 9 -13 11 0 20 8 5 10 10 4 10 -14 0 -14 63 0 72 8 5 7 8 -1 8 -8 0 -12 13 -11 35 1 28 5 35 22 36 l21 2 -21 4 c-19 4 -20 11 -20 101 0 54 5 100 11 104 7 5 6 8 -1 8 -6 0 -11 11 -11 25 0 15 5 25 14 25 7 0 13 -6 12 -12z m537 -23 c0 -19 -6 -35 -13 -35 -6 0 -10 11 -8 25 2 18 -2 25 -16 25 -10 0 -21 5 -24 10 -4 6 8 10 28 10 33 0 34 -2 33 -35z m107 -45 c4 -16 0 -20 -17 -20 -15 0 -22 7 -23 20 -1 13 4 20 16 20 10 0 21 -9 24 -20z m-1254 -7 c-1 -5 0 -10 1 -13 5 -11 6 -80 0 -80 -3 0 -6 -9 -6 -20 0 -11 4 -20 9 -20 5 0 4 -7 -3 -15 -10 -12 -10 -15 0 -15 8 0 9 -4 3 -12 -5 -7 -9 -30 -7 -50 2 -40 -1 -44 -26 -28 -10 6 -11 10 -3 10 15 0 13 21 -2 33 -6 6 -5 10 4 14 11 5 11 7 0 15 -11 7 -11 11 -1 15 6 2 12 9 12 14 0 6 -4 7 -10 4 -5 -3 -10 -1 -10 4 0 6 6 11 13 11 8 0 7 4 -3 10 -12 8 -13 11 -1 19 10 6 10 10 1 16 -9 6 -9 10 1 16 10 6 11 9 2 9 -7 0 -13 5 -13 11 0 5 5 7 10 4 6 -3 10 -1 10 4 0 6 -6 11 -12 11 -9 0 -8 4 2 10 10 6 11 10 3 10 -7 0 -13 5 -13 10 0 6 9 10 20 10 11 0 19 -3 19 -7z m1241 -33 c-17 -5 -19 -8 -7 -9 24 -1 23 -41 -1 -41 -14 0 -19 8 -19 30 0 26 4 30 26 29 l26 -1 -25 -8z m10 -70 c-14 -4 -19 -8 -12 -9 20 -2 14 -21 -7 -21 -14 0 -19 6 -18 20 1 16 8 20 32 19 29 -1 29 -1 5 -9z m13 -48 c-6 -4 -10 -25 -8 -50 2 -33 -1 -42 -13 -42 -13 0 -12 -3 4 -15 19 -14 19 -14 -1 -16 -17 -1 -16 -2 5 -9 24 -8 24 -8 3 -9 -15 -1 -23 -7 -23 -18 0 -13 3 -14 8 -6 6 9 11 7 20 -7 10 -16 10 -20 0 -20 -9 0 -8 -3 2 -10 11 -7 6 -10 -20 -9 -29 0 -31 2 -15 9 14 6 15 9 5 9 -23 1 -23 181 0 182 10 0 9 3 -5 9 -16 7 -14 9 15 9 19 0 30 -3 23 -7z m-120 -68 c-7 -3 -9 -12 -6 -20 3 -8 -1 -14 -11 -14 -9 0 -16 -4 -16 -10 0 -5 7 -7 15 -4 8 4 15 1 15 -5 0 -6 -8 -12 -17 -12 -17 -1 -17 -2 0 -6 9 -2 17 -14 17 -25 0 -14 -5 -18 -15 -14 -9 3 -15 0 -15 -9 0 -9 6 -12 15 -9 8 4 15 1 15 -5 0 -6 -10 -12 -22 -12 l-23 -2 23 -4 c12 -2 22 -9 22 -15 0 -5 -7 -8 -15 -4 -8 3 -15 1 -15 -4 0 -6 7 -10 15 -10 8 0 15 -9 15 -20 0 -15 -7 -20 -27 -21 l-28 -2 28 -4 c20 -3 27 -9 23 -19 -3 -8 -1 -14 5 -14 6 0 8 -4 4 -10 -3 -5 -12 -7 -20 -3 -8 3 -15 0 -15 -7 0 -6 4 -9 8 -6 4 2 14 1 22 -5 10 -5 11 -9 3 -9 -7 0 -10 -7 -7 -15 4 -8 1 -15 -5 -15 -6 0 -12 8 -12 18 -1 15 -2 15 -6 1 -3 -14 -20 -17 -94 -18 -55 -1 -89 2 -89 9 0 5 6 10 13 10 9 0 8 3 -2 9 -9 6 -10 11 -2 15 6 4 9 12 6 17 -4 5 -1 9 5 9 6 0 8 5 5 10 -4 6 -11 7 -17 4 -7 -5 -9 -2 -6 7 3 8 2 23 -3 34 -8 20 -8 20 -9 0 -1 -20 -1 -20 -12 0 -7 11 -13 35 -14 53 -2 30 0 32 29 32 24 0 28 3 17 10 -11 7 -5 10 23 10 26 0 37 4 37 15 0 11 10 14 40 12 33 -3 40 0 40 15 0 10 6 18 13 18 9 0 9 2 -1 8 -23 15 -2 42 32 41 17 0 26 -3 19 -5z m-1145 -80 c0 -18 -5 -24 -15 -20 -8 3 -18 6 -21 6 -4 0 0 5 8 10 10 6 11 10 3 10 -7 0 -13 5 -13 10 0 6 8 10 19 10 13 0 19 -7 19 -26z m1498 -23 c-3 -4 22 -7 54 -6 33 1 60 -2 60 -7 0 -4 -8 -8 -17 -9 -15 0 -15 -2 2 -9 16 -7 12 -9 -20 -10 -35 -2 -37 -3 -15 -10 15 -5 18 -8 8 -9 -9 -1 -24 -4 -34 -8 -13 -5 -16 -3 -11 10 5 13 1 17 -16 17 -17 0 -22 6 -24 30 -1 18 2 28 8 25 5 -4 7 -10 5 -14z m-1499 -31 c-4 -26 -13 -34 -27 -25 -9 6 -9 10 1 16 12 8 11 11 -1 19 -12 8 -11 10 7 10 17 0 22 -5 20 -20z m1260 -40 c-1 -14 -8 -20 -27 -20 -25 1 -25 1 -5 17 16 13 17 15 3 10 -10 -4 -18 -2 -18 3 0 6 11 10 24 10 19 0 24 -5 23 -20z m-754 -37 c-7 -2 -13 -9 -13 -14 0 -6 5 -7 10 -4 6 3 10 1 10 -4 0 -6 -6 -11 -12 -11 -10 0 -10 -2 0 -8 9 -7 10 -15 3 -35 -6 -15 -8 -27 -5 -27 4 0 1 -6 -5 -13 -6 -8 -8 -17 -4 -20 3 -4 -1 -7 -10 -7 -9 0 -17 5 -17 11 0 8 -6 7 -16 -2 -15 -12 -18 -11 -27 3 -10 15 -12 15 -24 0 -11 -15 -12 -15 -13 6 0 14 6 22 17 22 9 0 14 3 11 6 -3 3 12 24 33 46 21 23 39 45 39 50 0 4 8 8 18 7 10 0 12 -3 5 -6z m1246 -40 c0 15 7 27 14 27 10 0 15 -70 8 -122 -2 -19 -21 -6 -21 15 0 17 -2 19 -9 7 -6 -8 -7 -18 -5 -22 3 -4 -2 -8 -10 -8 -9 0 -16 6 -17 13 0 10 -2 10 -6 0 -2 -7 -12 -13 -21 -13 -15 0 -15 2 -2 10 13 9 13 10 0 10 -13 0 -13 2 0 9 8 6 18 7 22 5 4 -3 8 2 8 10 0 9 6 16 13 16 8 0 7 4 -3 10 -10 6 -11 10 -2 10 6 0 13 12 13 28 l1 27 8 -30 8 -30 1 28z m-1141 -25 c-1 -28 2 -43 9 -43 6 0 15 -3 19 -7 4 -5 -7 -8 -24 -8 -25 0 -30 4 -29 20 1 11 5 20 10 20 4 0 5 6 0 13 -14 23 -13 47 3 47 12 0 15 -9 12 -42z"/> 
<path d="M1505 2050 l-16 -31 28 7 c36 9 36 9 28 33 -9 29 -22 26 -40 -9z"/> 
<path d="M810 1902 c1 -21 24 -35 81 -47 127 -26 291 -103 459 -214 116 -76 118 -78 90 -47 -31 35 -184 138 -261 177 -111 55 -369 147 -369 131z"/> 
<path d="M757 1833 c-14 -14 -6 -23 21 -23 86 0 339 -89 531 -187 79 -40 146 -72 147 -70 1 1 -49 31 -111 66 -137 75 -320 151 -464 192 -115 32 -115 32 -124 22z"/> 
<path d="M720 1755 c7 -8 27 -15 44 -15 117 0 342 -62 537 -149 139 -61 116 -39 -36 35 -127 61 -242 97 -403 125 -142 24 -159 24 -142 4z"/> 
<path d="M2390 1220 c0 -35 3 -60 7 -56 8 8 7 105 -1 114 -3 3 -6 -23 -6 -58z"/> 
<path d="M1470 1135 c0 -45 4 -56 21 -65 38 -21 52 -5 46 50 -8 63 -12 70 -43 70 -22 0 -24 -3 -24 -55z"/> 
<path d="M882 1001 c3 -89 4 -94 26 -97 20 -4 22 0 22 39 -1 58 -15 117 -35 136 -14 15 -16 8 -13 -78z"/> 
<path d="M2277 2609 c6 -82 9 -90 24 -69 13 20 2 111 -16 129 -12 12 -13 4 -8 -60z"/> 
<path d="M643 2643 c-9 -3 -7 -11 7 -26 11 -11 26 -33 32 -49 13 -29 23 -35 33 -19 5 9 -45 101 -55 100 -3 0 -10 -3 -17 -6z"/> 
<path d="M581 2591 c-10 -6 -9 -10 3 -14 9 -4 16 -14 16 -24 0 -23 47 -46 69 -33 13 7 10 11 -16 20 -18 7 -33 18 -33 25 0 19 -24 35 -39 26z"/> 
<path d="M535 2560 c-3 -5 -2 -10 3 -10 5 0 22 -18 37 -40 21 -30 31 -37 40 -30 10 9 7 18 -16 43 -16 17 -29 35 -29 39 0 12 -28 10 -35 -2z"/> 
<path d="M2379 2523 l-20 -47 30 -30 c17 -16 32 -28 33 -25 2 2 18 21 37 41 l35 38 -24 25 c-12 13 -28 22 -33 18 -6 -3 0 -10 13 -15 l24 -9 -37 -36 c-20 -21 -39 -34 -43 -30 -6 6 5 57 23 103 3 8 0 14 -6 14 -7 0 -21 -21 -32 -47z"/> 
<path d="M454 2484 c-5 -2 8 -24 30 -48 26 -27 45 -40 52 -34 8 6 -1 21 -28 48 -22 22 -41 40 -42 39 0 0 -6 -3 -12 -5z"/> 
<path d="M2530 2452 c0 -6 -18 -24 -40 -40 -31 -22 -37 -32 -28 -40 10 -7 24 0 55 28 37 32 41 39 28 50 -9 8 -15 8 -15 2z"/> 
<path d="M390 2415 c-31 -32 -33 -37 -18 -51 14 -14 15 -14 11 10 -7 35 7 33 47 -9 26 -27 37 -32 47 -23 11 8 5 17 -27 41 -45 35 -50 47 -19 47 11 0 17 5 14 10 -10 16 -19 12 -55 -25z"/> 
<path d="M1713 2429 c-14 -14 -6 -39 13 -39 8 0 14 10 14 25 0 27 -9 32 -27 14z"/> 
<path d="M2527 2372 c-35 -38 -8 -92 46 -92 27 0 57 32 57 61 0 43 -73 65 -103 31z m81 -16 c8 -38 -57 -77 -80 -49 -10 13 -7 20 21 45 35 31 54 32 59 4z"/> 
<path d="M311 2311 c9 -27 36 -36 69 -24 17 6 32 7 36 2 9 -15 -5 -29 -29 -29 -16 0 -18 -3 -9 -12 18 -18 56 23 47 51 -7 23 -34 27 -66 10 -15 -8 -24 -7 -36 3 -14 11 -15 11 -12 -1z"/> 
<path d="M2657 2294 c-7 -12 -37 -115 -37 -127 0 -5 6 -4 14 2 21 18 47 101 37 119 -4 8 -11 11 -14 6z"/> 
<path d="M280 2260 c-8 -14 -8 -20 0 -20 6 0 28 -11 50 -25 25 -16 41 -21 46 -14 6 10 -22 38 -38 39 -5 0 -17 9 -28 20 -19 19 -20 19 -30 0z"/> 
<path d="M262 2166 c-24 -6 -48 -20 -54 -30 -9 -17 -8 -18 8 -12 10 4 44 13 74 19 65 13 69 15 50 27 -18 12 -23 11 -78 -4z"/> 
<path d="M2693 2116 c-19 -20 -28 -38 -23 -46 5 -9 18 -1 44 26 19 22 36 42 36 47 0 18 -29 4 -57 -27z"/> 
<path d="M186 2083 c-8 -21 -8 -23 9 -23 9 0 33 -9 54 -20 39 -19 39 -19 44 0 3 13 0 20 -9 20 -8 0 -32 8 -54 19 -33 16 -40 16 -44 4z"/> 
<path d="M2745 2054 c-21 -12 -43 -20 -47 -18 -9 6 -11 -20 -2 -29 4 -3 21 1 38 10 17 9 41 19 54 22 19 5 21 9 10 22 -12 15 -17 14 -53 -7z"/> 
<path d="M160 2018 c0 -9 18 -20 41 -27 23 -7 47 -15 55 -18 8 -3 14 1 14 9 0 9 -18 20 -41 27 -23 7 -47 15 -55 18 -8 3 -14 -1 -14 -9z"/> 
<path d="M2780 1952 c-25 -9 -46 -17 -48 -18 -1 -1 0 -8 3 -16 5 -14 13 -13 59 5 35 14 52 26 49 34 -6 15 -5 15 -63 -5z"/> 
<path d="M135 1939 c-4 -6 -5 -12 -2 -15 8 -8 117 9 111 17 -8 13 -102 11 -109 -2z"/> 
<path d="M131 1428 c-19 -5 -43 -7 -53 -5 -14 4 -18 -1 -18 -19 0 -21 3 -23 26 -14 14 6 39 10 55 10 22 0 29 5 29 20 0 11 -1 20 -2 19 -2 0 -18 -5 -37 -11z"/> 
<path d="M2857 1387 c-20 -18 -37 -40 -37 -50 0 -13 14 -6 58 29 31 26 59 48 61 50 2 2 -7 4 -20 4 -13 -1 -41 -15 -62 -33z"/> 
<path d="M171 1382 c-1 -20 -52 -35 -78 -23 -25 11 -30 2 -11 -17 29 -29 109 4 95 40 -4 10 -6 10 -6 0z"/> 
<path d="M2992 1329 c-3 -62 -32 -200 -64 -299 -36 -115 -110 -265 -186 -380 -74 -113 -269 -307 -387 -386 -208 -138 -455 -229 -690 -253 -76 -8 -77 -8 -24 -10 134 -3 374 65 550 155 150 77 266 161 384 279 166 167 287 360 359 575 39 116 69 273 63 323 -4 32 -4 32 -5 -4z"/> 
<path d="M133 1307 c-41 -8 -53 -15 -53 -29 0 -15 4 -17 19 -9 10 6 35 11 55 13 27 1 36 7 36 20 0 10 -1 17 -2 16 -2 0 -27 -6 -55 -11z"/> 
<path d="M2826 1294 c-21 -21 -20 -22 9 -16 39 7 75 -6 75 -27 0 -10 -7 -22 -16 -25 -19 -7 -67 3 -76 18 -4 6 -10 8 -13 5 -12 -13 32 -51 58 -51 36 -1 57 19 57 52 0 50 -60 79 -94 44z"/> 
<path d="M172 1249 c-13 -5 -37 -10 -53 -11 -21 -2 -29 -7 -26 -18 2 -8 10 -13 18 -11 8 2 29 7 47 11 38 9 46 15 41 28 -3 6 -13 6 -27 1z"/> 
<path d="M164 1201 c-44 -11 -54 -19 -54 -44 1 -21 1 -21 24 5 17 19 27 23 34 16 12 -12 42 6 42 23 0 10 -2 10 -46 0z"/> 
<path d="M2796 1174 c-3 -9 -6 -17 -6 -18 0 -1 13 -3 30 -4 16 -1 40 -6 54 -12 19 -7 26 -5 30 6 9 23 8 24 -23 24 -16 0 -41 4 -54 9 -20 8 -27 6 -31 -5z"/> 
<path d="M162 1127 c-30 -8 -42 -16 -40 -26 2 -9 7 -15 11 -13 4 1 27 7 52 14 25 7 45 18 45 25 0 15 -7 14 -68 0z"/> 
<path d="M2776 1091 c-4 -6 -5 -11 -1 -11 3 0 1 -9 -4 -19 -8 -15 -7 -20 5 -25 12 -5 14 -1 9 15 -7 20 -5 21 31 14 22 -4 44 -11 50 -16 8 -6 13 -3 17 10 3 15 -2 20 -23 25 -15 3 -39 8 -53 11 -14 4 -28 2 -31 -4z"/> 
<path d="M180 1020 c-23 -23 -25 -39 -8 -75 12 -27 16 -29 36 -16 10 6 9 10 -7 14 -12 3 -24 13 -28 22 -9 24 22 45 66 45 34 1 35 2 17 15 -27 20 -52 19 -76 -5z"/> 
<path d="M2802 1023 c-28 -3 -42 -8 -39 -16 2 -7 11 -12 20 -11 10 0 33 1 52 2 24 1 35 7 35 17 0 8 -6 14 -12 13 -7 -1 -32 -3 -56 -5z"/> 
<path d="M265 940 c-3 -5 1 -10 9 -10 35 0 23 -20 -22 -36 -36 -13 -48 -22 -45 -34 4 -15 10 -14 54 7 51 25 56 32 39 64 -12 21 -25 25 -35 9z"/> 
<path d="M2710 902 c0 -5 9 -21 21 -36 22 -28 60 -34 78 -12 9 11 6 14 -15 14 -14 0 -39 9 -55 21 -16 12 -29 18 -29 13z"/> 
<path d="M290 817 c-25 -12 -46 -22 -48 -23 -1 -1 0 -8 4 -17 5 -14 11 -13 42 8 20 14 42 25 49 25 14 0 18 16 6 23 -5 3 -28 -5 -53 -16z"/> 
<path d="M2655 782 c-3 -8 -4 -15 -3 -16 31 -16 81 -36 88 -36 12 0 40 29 40 41 0 6 -7 3 -16 -6 -15 -14 -20 -14 -59 9 -37 20 -45 22 -50 8z"/> 
<path d="M308 768 c-16 -13 -35 -58 -24 -58 3 0 16 11 30 25 14 14 35 25 46 25 12 0 18 5 15 10 -9 14 -48 12 -67 -2z"/> 
<path d="M391 739 c-2 -24 -49 -52 -77 -46 -20 3 -22 2 -13 -9 30 -37 105 1 96 48 -2 13 -5 16 -6 7z"/> 
<path d="M2634 725 c-18 -14 -18 -14 9 -15 17 0 37 -10 52 -26 23 -25 25 -26 25 -6 0 18 -42 62 -59 62 -4 0 -16 -7 -27 -15z"/> 
<path d="M406 630 c-18 -80 -16 -94 7 -58 21 31 31 93 19 113 -7 14 -13 1 -26 -55z"/> 
<path d="M2596 681 c-3 -4 17 -22 44 -39 61 -38 76 -19 16 20 -44 30 -52 33 -60 19z"/> 
<path d="M2535 600 c-4 -6 5 -20 19 -31 14 -11 33 -28 42 -36 11 -12 18 -13 27 -4 8 8 5 15 -12 28 -22 15 -22 17 -7 28 15 11 15 13 1 19 -9 3 -15 0 -15 -9 0 -19 -9 -19 -31 1 -12 10 -19 12 -24 4z"/> 
<path d="M489 519 c-26 -27 -33 -41 -25 -48 14 -12 91 62 82 78 -10 16 -17 12 -57 -30z"/> 
<path d="M558 505 c-2 -22 -12 -34 -37 -47 -28 -14 -31 -18 -17 -24 44 -17 91 41 68 82 -9 16 -11 14 -14 -11z"/> 
<path d="M2440 496 c-7 -9 2 -23 29 -50 29 -28 40 -34 47 -24 13 18 -61 91 -76 74z"/> 
<path d="M578 436 c-27 -31 -34 -46 -26 -54 8 -8 21 2 46 34 45 59 28 75 -20 20z"/> 
<path d="M2317 403 c-3 -5 10 -29 28 -55 22 -32 36 -43 43 -36 7 7 0 24 -21 53 -32 44 -42 51 -50 38z"/> 
<path d="M715 351 c-8 -16 -21 -36 -30 -45 -14 -14 -13 -16 5 -26 15 -8 20 -8 20 2 0 7 11 30 25 49 22 34 24 49 4 49 -5 0 -15 -13 -24 -29z"/> 
<path d="M2255 360 c-3 -5 0 -10 8 -10 20 0 47 -33 47 -59 0 -12 4 -19 10 -16 6 3 10 19 10 35 0 41 -57 79 -75 50z"/> 
<path d="M2221 341 c-9 -6 -6 -17 13 -45 13 -20 27 -42 29 -49 3 -9 8 -9 16 -1 17 15 -39 106 -58 95z"/> 
<path d="M837 303 c-3 -5 -8 -29 -12 -54 -6 -37 -4 -47 9 -52 13 -5 16 1 16 37 0 25 3 51 6 60 6 16 -11 23 -19 9z"/> 
<path d="M2060 262 c0 -4 29 -22 65 -40 61 -30 64 -30 54 -9 -14 30 -119 74 -119 49z"/> 
<path d="M960 248 c0 -8 -8 -30 -19 -50 -18 -37 -18 -48 3 -48 10 0 39 74 38 97 -1 14 -22 15 -22 1z"/> 
<path d="M1002 240 c3 -8 1 -23 -4 -32 -6 -14 -5 -18 7 -18 24 0 30 29 10 48 -14 14 -16 14 -13 2z"/> 
<path d="M2015 230 c10 -11 19 -36 19 -55 1 -37 10 -45 20 -19 12 31 6 63 -16 78 -32 22 -45 20 -23 -4z"/> 
<path d="M1958 214 c-16 -34 7 -78 42 -82 23 -3 23 -2 8 10 -22 16 -39 63 -32 83 10 26 -6 16 -18 -11z"/> 
<path d="M1042 188 c-7 -24 -15 -49 -18 -55 -4 -8 3 -13 17 -13 12 0 20 3 16 6 -3 3 -2 16 2 28 19 50 21 76 8 76 -7 0 -18 -19 -25 -42z"/> 
<path d="M1898 213 c-2 -5 1 -31 7 -58 7 -38 14 -50 26 -47 15 3 15 7 0 57 -15 51 -25 65 -33 48z"/> 
<path d="M1300 190 c25 -8 107 -13 99 -6 -2 2 -31 6 -64 9 -37 3 -51 2 -35 -3z"/> 
<path d="M1814 174 c4 -15 10 -39 13 -55 3 -16 12 -29 20 -29 9 0 12 7 9 18 -3 9 -8 34 -12 55 -4 23 -12 37 -21 37 -11 0 -13 -7 -9 -26z"/> 
<path d="M1177 182 c-3 -4 -3 -28 0 -55 4 -35 10 -47 22 -47 15 0 16 6 7 55 -10 51 -18 65 -29 47z"/> 
<path d="M1262 173 c2 -5 19 -32 38 -62 28 -44 36 -51 38 -33 4 25 -45 102 -65 102 -8 0 -13 -3 -11 -7z"/> 
<path d="M1458 173 c17 -2 47 -2 65 0 17 2 3 4 -33 4 -36 0 -50 -2 -32 -4z"/> 
<path d="M1737 168 c-3 -8 4 -25 14 -39 10 -13 19 -30 19 -36 0 -7 9 -13 21 -13 21 0 21 0 -2 38 -33 55 -45 67 -52 50z"/> 
<path d="M1378 115 c-2 -45 0 -55 13 -55 11 0 16 12 18 47 1 26 4 50 7 55 3 4 -4 8 -14 8 -17 0 -21 -8 -24 -55z"/> 
<path d="M1603 144 c-15 -23 -15 -29 -2 -52 19 -33 47 -45 29 -12 -7 13 -10 38 -7 56 7 41 3 42 -20 8z"/> 
<path d="M1441 105 c-2 -47 1 -55 16 -55 16 0 18 7 15 55 -5 75 -28 75 -31 0z"/> 
<path d="M1544 105 c1 -46 4 -55 20 -55 12 0 16 5 12 16 -3 9 -6 33 -6 55 0 26 -4 39 -13 39 -10 0 -13 -15 -13 -55z"/> 
<path d="M2915 65 c-38 -14 -81 -25 -94 -25 -19 0 -22 -3 -14 -11 7 -7 25 -9 45 -5 18 3 35 5 38 4 3 -1 16 5 30 12 14 8 29 13 33 12 12 -3 47 18 47 28 0 13 -4 13 -85 -15z"/> 
</g> 
</svg> 